<svg width="22" height="22" viewBox="0 0 22 22" fill="none" xmlns="http://www.w3.org/2000/svg">
<path d="M1.79913 10.8845L6.22663 12.388L16.7392 5.96128C16.8918 5.86847 17.0479 6.07541 16.9166 6.19641L8.95807 13.5217L8.66245 17.6227C8.65762 17.6914 8.67378 17.7599 8.70881 17.8192C8.74383 17.8785 8.79605 17.9257 8.85854 17.9547C8.92103 17.9836 8.99084 17.9929 9.05871 17.9812C9.12659 17.9695 9.18931 17.9375 9.23857 17.8894L11.6888 15.4797L16.1686 18.8705C16.6512 19.2362 17.3504 18.9784 17.4803 18.3872L20.5995 4.22466C20.7776 3.41685 19.9856 2.73485 19.2135 3.03047L1.77713 9.70747C1.22988 9.91716 1.24501 10.6961 1.79913 10.8845Z" fill="white"/>
</svg>
