<svg width="24" height="24" viewBox="0 0 24 24" fill="none" xmlns="http://www.w3.org/2000/svg">
<g clip-path="url(#clip0_65_37)">
<path fill-rule="evenodd" clip-rule="evenodd" d="M20.6554 13.8449C21.4515 14.6221 22.2918 15.3534 23.0058 16.2091C23.3212 16.5893 23.6199 16.9817 23.8483 17.4229C24.172 18.0502 23.8788 18.7405 23.3163 18.778L19.82 18.7764C18.9182 18.8512 18.1988 18.4882 17.5939 17.8716C17.1098 17.3785 16.6615 16.8538 16.1961 16.3441C16.0052 16.1357 15.8055 15.9397 15.5669 15.7847C15.0896 15.4749 14.6753 15.5698 14.4025 16.0676C14.1247 16.5739 14.0617 17.1346 14.0344 17.6988C13.997 18.5222 13.7481 18.7386 12.9211 18.7763C11.1537 18.8597 9.47629 18.5923 7.91805 17.7007C6.54426 16.9146 5.47894 15.805 4.5517 14.5488C2.74634 12.1027 1.36379 9.41476 0.121208 6.65156C-0.158487 6.029 0.0460603 5.69482 0.732957 5.68299C1.87358 5.66084 3.01405 5.66241 4.15601 5.68142C4.61959 5.6882 4.92649 5.95409 5.10549 6.39205C5.7226 7.90944 6.47771 9.35309 7.42553 10.6912C7.67794 11.0475 7.93532 11.4038 8.30184 11.6545C8.7073 11.9322 9.01602 11.8401 9.20677 11.3885C9.32781 11.1021 9.3808 10.7936 9.40808 10.4869C9.49845 9.43155 9.51035 8.37807 9.35186 7.32647C9.25455 6.67017 8.88488 6.2453 8.23 6.12111C7.89582 6.05779 7.94557 5.93343 8.10738 5.74269C8.38842 5.41371 8.65274 5.20892 9.17964 5.20892H13.1311C13.7532 5.3317 13.8913 5.61116 13.9765 6.2371L13.9799 10.6263C13.9731 10.8687 14.1009 11.5877 14.5374 11.7481C14.8867 11.8623 15.117 11.5828 15.3265 11.3613C16.2726 10.3572 16.9479 9.17055 17.5511 7.94177C17.8188 7.40146 18.049 6.84033 18.2721 6.27968C18.4373 5.86365 18.6967 5.65894 19.1653 5.66801L22.9684 5.6714C23.0811 5.6714 23.1952 5.67306 23.3044 5.69175C23.9453 5.80096 24.1209 6.07663 23.923 6.70242C23.6111 7.68423 23.0043 8.50242 22.411 9.32439C21.7768 10.202 21.0985 11.0495 20.4696 11.9323C19.8917 12.7384 19.9376 13.1447 20.6554 13.8449Z" fill="white"/>
</g>
<defs>
<clipPath id="clip0_65_37">
<rect width="24" height="24" fill="white"/>
</clipPath>
</defs>
</svg>
